HIERARCHY
ROOT Hips
{
  OFFSET 155.048 98.1286 3.93448
  CHANNELS 6 Xposition Yposition Zposition Zrotation Xrotation Yrotation
  JOINT RightUpLeg
  {
    OFFSET -8.9458 -8.66707 0.101652
    CHANNELS 3 Zrotation Xrotation Yrotation
    JOINT RightLeg
    {
      OFFSET 0 -44.4227 1.3727
      CHANNELS 3 Zrotation Xrotation Yrotation
      JOINT RightFoot
      {
        OFFSET 0.253549 -42.0924 -1.46059
        CHANNELS 3 Zrotation Xrotation Yrotation
        JOINT RightToes
        {
          OFFSET 0.04 -4.41509 8.4991
          CHANNELS 3 Zrotation Xrotation Yrotation
          End Site
          {
            OFFSET -0.08 -0.137448 9.77979
          }
        }
      }
    }
  }
  JOINT Spine
  {
    OFFSET 0 11.8905 0
    CHANNELS 3 Zrotation Xrotation Yrotation
    JOINT Spine1
    {
      OFFSET 0 25.6574 0.127663
      CHANNELS 3 Zrotation Xrotation Yrotation
      JOINT Head
      {
        OFFSET 0 8.73416 0.011341
        CHANNELS 3 Zrotation Xrotation Yrotation
        End Site
        {
          OFFSET -0.29 12.7742 2.51395
        }
      }
      JOINT LeftShoulder1
      {
        OFFSET 8.99 -0.362252 -0.22
        CHANNELS 3 Zrotation Xrotation Yrotation
        JOINT LeftArm
        {
          OFFSET 10.2827 -0.00337999 0.322123
          CHANNELS 3 Zrotation Xrotation Yrotation
          JOINT LeftForeArm
          {
            OFFSET 26.2597 0.099144 -1.42434
            CHANNELS 3 Zrotation Xrotation Yrotation
            JOINT LeftHand
            {
              OFFSET 22.0902 0.085362 1.02216
              CHANNELS 3 Zrotation Xrotation Yrotation
              End Site
              {
                OFFSET 13.419 -0.6 1.50291
              }
            }
          }
        }
      }
      JOINT RightShoulder
      {
        OFFSET -8.99 -0.362252 -0.22
        CHANNELS 3 Zrotation Xrotation Yrotation
        JOINT RightArm
        {
          OFFSET -10.2827 -0.00338 0.322123
          CHANNELS 3 Zrotation Xrotation Yrotation
          JOINT RightForeArm
          {
            OFFSET -26.364 0.099144 -1.42434
            CHANNELS 3 Zrotation Xrotation Yrotation
            JOINT RightHand
            {
              OFFSET -22.0324 0.085362 1.02216
              CHANNELS 3 Zrotation Xrotation Yrotation
              End Site
              {
                OFFSET -13.3284 -0.6 1.50291
              }
            }
          }
        }
      }
    }
  }
  JOINT LeftUpLeg
  {
    OFFSET 8.9458 -8.66707 0.101652
    CHANNELS 3 Zrotation Xrotation Yrotation
    JOINT LeftLeg
    {
      OFFSET 0 -44.4227 1.3727
      CHANNELS 3 Zrotation Xrotation Yrotation
      JOINT LeftFoot
      {
        OFFSET -0.253549 -42.0924 -1.46059
        CHANNELS 3 Zrotation Xrotation Yrotation
        JOINT LeftToes
        {
          OFFSET -0.04 -4.41509 8.4991
          CHANNELS 3 Zrotation Xrotation Yrotation
          End Site
          {
            OFFSET 0.08 -0.047448 9.77979
          }
        }
      }
    }
  }
}
MOTION
Frames:	12
Frame Time:	0.0333333
75.1603 100.61 3.41689 5.45955 0.218775 -99.6626 -0.324132 -6.94633 -4.8321 -1.62035 10.5402 -8.82794 5.7587 -8.86679 -0.118388 0.0462048 0.000530889 0.662642 3.31659 -4.61057 1.4785 -1.9014 13.8465 1.90088 2.75603 -13.6525 -6.34417 -38.1879 7.96355 -14.3309 -39.0306 -44.1882 -1.97028 -14.436 32.2384 -1.83152 19.6456 9.17631 1.03375 49.8455 12.8093 18.3532 15.1721 -45.5393 -12.1946 7.12135 26.4291 7.29704 -4.66631 9.61161 3.24341 -0.441814 -14.6293 3.02649 0.829826 17.0929 21.0841 -2.80154 -8.21733 0.0227997 -1.37417e-009 8.75219e-006 -1.47719e-008 
75.0441 100.58 3.73307 5.58104 0.334394 -100.648 -0.34598 -7.24041 -4.73141 -1.62897 10.7557 -7.9484 5.97848 -8.87254 -0.115818 0.0462048 0.000530889 0.662642 3.47527 -4.51304 2.08367 -2.51818 13.2321 2.67617 3.03125 -13.0075 -6.77896 -37.9677 7.84367 -14.1559 -37.7972 -43.165 0.712707 -13.7014 28.6979 -3.81933 20.5805 9.16648 1.18816 49.6416 12.7385 18.32 16.3802 -45.2444 -10.2491 6.62116 28.2829 8.3221 -4.86822 9.59005 3.44273 -0.172316 -14.6042 3.64159 0.645598 17.1523 21.447 -2.95826 -8.46125 0.0175225 -1.37417e-009 8.75219e-006 -1.47719e-008 
74.9238 100.562 4.06261 5.56063 0.567515 -101.342 -0.271742 -7.29957 -4.55124 -1.6539 10.9145 -7.44149 6.19263 -8.82411 -0.115846 0.0462048 0.000530889 0.662642 3.79912 -4.36952 2.46555 -3.33451 12.7672 3.25916 3.32559 -12.2722 -7.25136 -37.5429 7.73213 -14.0815 -37.0032 -41.072 2.82342 -13.332 24.5356 -5.69737 21.1983 9.14483 1.19598 49.3619 12.6408 18.273 17.9534 -44.7893 -8.12483 6.10269 28.0259 9.88567 -5.22123 9.56407 3.4171 0.00260984 -14.482 3.9394 0.596959 17.243 21.7569 -2.66319 -8.61337 0.0140122 -1.37417e-009 8.75219e-006 -1.47719e-008 
74.8236 100.534 4.34934 5.40979 0.737591 -101.644 -0.230772 -7.33813 -4.35402 -1.79644 11.3591 -7.31056 6.37548 -8.87641 -0.111331 0.0462048 0.000530889 0.662642 3.66236 -4.21525 2.64933 -3.65748 12.5019 3.53199 3.54154 -11.6666 -7.76026 -37.3136 7.69923 -14.102 -36.2664 -39.6968 3.99666 -13.3613 22.4997 -6.40264 21.2779 9.10702 0.998105 49.2333 12.6059 18.2683 19.3059 -43.6275 -6.07174 5.77189 25.6149 11.9467 -5.50234 9.54298 3.40865 0.098527 -14.3991 4.29992 0.510687 17.5831 21.6722 -2.60223 -8.83858 0.0107449 -1.37417e-009 8.75219e-006 -1.47719e-008 
74.7142 100.476 4.57106 5.1239 0.843052 -101.478 -0.296982 -7.31317 -4.29138 -1.92696 12.0858 -7.49117 6.54994 -9.14854 -0.0955134 0.0462048 0.000530889 0.662642 2.90011 -4.06301 2.64999 -3.16428 12.3413 3.43498 3.64174 -11.2502 -8.1972 -37.2651 7.71288 -14.1529 -35.5486 -39.694 4.42803 -13.5516 22.9093 -6.04339 21.0795 9.09183 0.867818 49.1937 12.6075 18.2883 20.2522 -41.6251 -4.32141 5.44916 22.5852 14.4351 -5.66853 9.52413 3.56264 0.0736321 -14.1748 4.56482 0.435036 17.8981 21.297 -2.86072 -9.20005 0.0012323 -1.37417e-009 8.75219e-006 -1.47719e-008 
74.5574 100.419 4.75416 4.69699 0.960761 -101.005 -0.417071 -6.98134 -4.32314 -1.95972 12.656 -7.89846 6.7108 -9.47544 -0.0761762 0.0462048 0.000530889 0.662642 1.99479 -3.97469 2.5297 -2.47324 12.3338 3.16326 3.7271 -10.9083 -8.46504 -37.1893 7.72639 -14.2151 -35.124 -40.5832 4.36997 -13.6935 23.8537 -5.42885 20.9341 9.11705 0.979198 49.1926 12.6297 18.3271 20.9029 -39.3141 -2.89578 4.9175 20.3112 17.1001 -5.94919 9.49329 3.77482 -0.0973631 -13.6984 4.48126 0.468598 18.0192 20.9213 -2.92945 -9.51133 -0.00585828 -1.37417e-009 8.75219e-006 -1.47719e-008 
74.3497 100.371 4.91495 4.27503 1.01648 -100.491 -0.589408 -6.54967 -4.34466 -1.97057 13.0772 -8.35614 6.84454 -9.77506 -0.0578496 0.0462048 0.000530889 0.662642 1.23109 -4.11623 2.3982 -2.068 12.4987 2.94104 3.90469 -10.4372 -8.54601 -37.0578 7.73152 -14.2817 -35.0065 -41.5567 4.03586 -13.5989 23.7177 -5.33346 20.8682 9.14966 1.15259 49.2649 12.6749 18.3738 21.3808 -37.5202 -1.6802 4.31858 19.1276 19.4481 -6.54475 9.43957 3.91151 -0.399655 -13.2741 4.16473 0.581163 18.2256 20.6471 -2.7566 -9.7149 -0.00637474 -1.37417e-009 8.75219e-006 -1.47719e-008 
74.1006 100.308 5.06171 4.02723 0.924064 -100.044 -0.861749 -6.37497 -4.36166 -2.0195 13.6296 -8.71976 6.9482 -10.1113 -0.0374356 0.0462048 0.000530889 0.662642 0.599679 -4.54293 2.33544 -1.84652 12.6641 2.84249 4.136 -9.74646 -8.55683 -36.9961 7.7383 -14.323 -34.9812 -41.3131 3.63925 -13.2407 21.7963 -6.3164 20.8395 9.16127 1.21354 49.3667 12.7092 18.3888 21.8206 -36.5862 -0.619825 3.95383 18.6628 21.0567 -7.20005 9.38295 3.98363 -0.830039 -13.1243 3.71185 0.716078 18.6155 20.5535 -2.68135 -9.92613 -0.00522609 -1.37417e-009 8.75219e-006 -1.47719e-008 
73.807 100.232 5.21582 3.87597 0.739592 -99.5908 -1.2188 -6.31058 -4.44704 -2.08995 14.2166 -9.00433 7.01369 -10.4625 -0.0165034 0.0462048 0.000530889 0.662642 0.193065 -5.09518 2.34333 -1.82972 12.7623 2.87858 4.33853 -8.98797 -8.7057 -37.0451 7.74859 -14.3258 -35.0152 -38.3513 3.26057 -12.7561 17.4658 -8.73814 20.9457 9.16125 1.23598 49.4317 12.7174 18.3746 22.3327 -36.1644 0.301917 3.88105 18.4669 21.7678 -7.48744 9.35529 4.06105 -1.38794 -13.0065 3.07264 0.867338 18.9075 20.6802 -2.66399 -10.1602 -0.00313503 -1.37417e-009 8.75219e-006 -1.47719e-008 
73.4633 100.168 5.40134 3.60825 0.611538 -99.0511 -1.55462 -5.9477 -4.61972 -2.15808 14.5575 -9.30341 7.0406 -10.7372 -0.000490139 0.0462048 0.000530889 0.662642 0.259128 -5.63207 2.39409 -2.31871 13.0163 3.0763 4.56466 -8.40345 -9.11167 -37.0944 7.75081 -14.3101 -35.2956 -32.4955 2.82685 -12.2939 10.7653 -12.5277 21.1487 9.15424 1.23886 49.5077 12.7477 18.3938 22.903 -35.8008 1.19221 3.96492 18.3931 21.5621 -7.43319 9.35666 4.11557 -1.95449 -12.6612 2.41019 1.01402 19.0751 20.7912 -2.41865 -10.3957 -0.00118007 -1.37417e-009 8.75219e-006 -1.47719e-008 
73.0714 100.122 5.61884 3.18547 0.588483 -98.4001 -1.82434 -5.21046 -4.8825 -2.2052 14.6259 -9.6354 7.05465 -10.9271 0.0105364 0.0462048 0.000530889 0.662642 0.772153 -6.17699 2.4812 -3.28333 13.5882 3.4188 4.91065 -8.06709 -9.72634 -37.0631 7.73741 -14.2929 -35.7529 -26.2688 2.35945 -11.9636 4.11364 -16.9013 21.1243 9.12655 1.07512 49.6488 12.8254 18.4658 23.4104 -35.4041 2.09435 4.169 18.6291 20.5169 -7.40548 9.36226 4.05643 -2.40024 -12.1141 1.97447 1.10117 19.265 20.5881 -2.00401 -10.6709 -0.00044341 -1.37417e-009 8.75219e-006 -1.47719e-008 
72.6379 100.076 5.8544 2.74688 0.659532 -97.6354 -2.01203 -4.34933 -5.22308 -2.22165 14.6208 -10.0023 7.1056 -11.1208 0.0229666 0.0462048 0.000530889 0.662642 1.44625 -6.7329 2.62957 -4.22527 14.2673 3.81989 5.31016 -7.87753 -10.4829 -37.045 7.72509 -14.2725 -35.9929 -23.4461 1.9707 -11.7893 1.27733 -20.6085 20.8083 9.07912 0.730708 49.8237 12.9161 18.545 23.6271 -34.9906 2.71829 4.55548 19.3683 18.9769 -7.44361 9.36918 3.87616 -2.67462 -11.5339 1.74401 1.12469 19.5202 20.0646 -1.77726 -11.0576 -0.0021598 -1.37417e-009 8.75219e-006 -1.47719e-008 
